<svg width="72" height="73" viewBox="0 0 72 73" fill="none" xmlns="http://www.w3.org/2000/svg">
<path d="M32.1377 3.27359C37.3177 2.65907 42.6431 3.28927 47.5312 5.14421C51.9433 6.81736 56.0102 9.45078 59.3241 12.8498C56.4898 15.6993 53.6815 18.5751 50.8507 21.4281C49.0261 19.6137 46.8998 18.1024 44.5598 17.053C41.4506 15.6401 37.9934 15.0185 34.5951 15.2566C30.7561 15.5075 26.9937 16.8599 23.8634 19.1276C19.9793 21.9043 17.0705 26.0583 15.7915 30.7013C14.8324 34.1075 14.753 37.7568 15.5271 41.2093C16.1494 44.0331 17.3616 46.7193 19.0462 49.0533C20.61 51.224 22.583 53.0911 24.8273 54.5219C27.4141 56.1786 30.3652 57.2465 33.4027 57.6215C36.0056 57.953 38.6691 57.7805 41.2109 57.1225C41.49 56.9863 41.6496 57.3086 41.8247 57.469C44.6892 60.3882 47.5678 63.2933 50.433 66.2111C45.2784 68.749 39.465 69.9082 33.7479 69.499C28.9631 69.1775 24.2508 67.7823 20.0573 65.4227C18.3087 64.4531 16.6662 63.2968 15.1123 62.0336C13.8846 60.9778 12.6717 59.8942 11.6163 58.6581C9.82968 56.7054 8.29687 54.5154 7.03406 52.18C6.75281 51.6297 6.42656 51.1021 6.19734 50.5261C5.88304 49.8809 5.60883 49.2172 5.33601 48.5535C4.98726 47.6075 4.61461 46.6687 4.36008 45.6913C4.32984 45.5623 4.2525 45.4539 4.18289 45.3455C3.59929 43.3024 3.27234 41.1872 3.09726 39.0692C2.91304 36.4059 3.00375 33.719 3.43336 31.0827C4.28976 25.7018 6.48562 20.5505 9.75164 16.2232C11.8694 13.4073 14.4295 10.9329 17.3074 8.92681C21.6977 5.85354 26.8369 3.88738 32.1377 3.27359M35.5957 6.87226C35.1949 6.94283 34.8251 7.1403 34.5143 7.40193C33.783 8.03855 33.5201 9.17062 33.9398 10.0596C34.3849 11.1304 35.7089 11.7064 36.7777 11.2715C37.8626 10.8979 38.52 9.5955 38.1656 8.48695C37.8773 7.38696 36.6947 6.64841 35.5957 6.87226ZM16.7548 14.8559C16.38 14.8759 16.0102 14.9928 15.6888 15.1896C14.8823 15.6907 14.4316 16.7394 14.6791 17.6747C14.8964 18.6784 15.859 19.4612 16.8771 19.4291C17.9339 19.4583 18.9218 18.6171 19.0948 17.5635C19.2523 16.8271 18.9816 16.0272 18.4521 15.5068C18.0134 15.0555 17.3763 14.821 16.7548 14.8559M8.60132 34.2465C8.13586 34.3342 7.69851 34.573 7.36804 34.9167C6.70359 35.6096 6.54398 36.7395 7.01507 37.5843C7.51851 38.5795 8.80664 39.0714 9.82617 38.6265C10.8823 38.2337 11.513 36.957 11.1663 35.8669C10.8823 34.7684 9.69961 34.0163 8.60132 34.2465M16.4749 53.6407C15.667 53.7797 14.9646 54.4049 14.7284 55.2005C14.4562 56.0296 14.7192 56.9942 15.3541 57.5787C15.7866 57.9694 16.3666 58.199 16.9481 58.1719C17.7328 58.154 18.4936 57.6821 18.855 56.9742C19.2016 56.3447 19.2171 55.547 18.9049 54.8997C18.4957 53.9886 17.4417 53.4504 16.4749 53.6407M35.6041 61.6272C34.7773 61.7712 34.0629 62.4164 33.84 63.2384C33.5679 64.1345 33.9194 65.181 34.6774 65.7185C35.2301 66.1313 35.9726 66.2653 36.63 66.065C37.3057 65.8675 37.8745 65.335 38.1115 64.662C38.4609 63.7538 38.1368 62.6431 37.3676 62.0628C36.874 61.6743 36.218 61.516 35.6041 61.6272V61.6272Z" fill="#FBBC05"/>
<path d="M35.5957 6.87226C36.6947 6.64842 37.8773 7.38697 38.1656 8.48696C38.52 9.59551 37.8626 10.898 36.7777 11.2715C35.7089 11.7064 34.3849 11.1304 33.9398 10.0596C33.5201 9.17062 33.783 8.03855 34.5143 7.40194C34.8251 7.14031 35.1949 6.94284 35.5957 6.87226V6.87226Z" fill="#EA4335"/>
<path d="M8.60133 34.2466C9.69961 34.0163 10.8823 34.7684 11.1663 35.867C11.513 36.957 10.8823 38.2338 9.82617 38.6266C8.80664 39.0714 7.51851 38.5795 7.01508 37.5843C6.54398 36.7395 6.70359 35.6096 7.36805 34.9167C7.69851 34.5731 8.13586 34.3342 8.60133 34.2466V34.2466Z" fill="#EA4335"/>
<path d="M59.3241 12.8499L59.3318 12.842C61.0643 14.6328 62.6337 16.5918 63.945 18.7212C66.477 22.7961 68.1202 27.4342 68.7171 32.2127C69.1158 35.4121 69.0877 38.6715 68.573 41.8559C67.68 47.5598 65.2725 53.0063 61.6894 57.4939C58.7152 61.2352 54.9485 64.3405 50.6918 66.4592L50.6475 66.4407C50.5765 66.3623 50.5048 66.2867 50.433 66.2111C47.5678 63.2933 44.6892 60.3883 41.8247 57.469C41.6496 57.3086 41.49 56.9863 41.2109 57.1225C38.6691 57.7805 36.0056 57.953 33.4027 57.6215C30.3652 57.2465 27.4141 56.1786 24.8273 54.5219C22.583 53.0911 20.61 51.224 19.0462 49.0533C17.3616 46.7193 16.1494 44.0331 15.5271 41.2094C14.753 37.7568 14.8324 34.1075 15.7915 30.7013C17.0705 26.0583 19.9793 21.9043 23.8634 19.1276C26.9937 16.8599 30.7561 15.5075 34.5952 15.2566C37.9934 15.0185 41.4506 15.6401 44.5598 17.0531C46.8998 18.1024 49.0261 19.6138 50.8507 21.4281C53.6815 18.5751 56.4898 15.6993 59.3241 12.8499M34.5916 25.9649C33.0989 26.1681 31.6462 26.6978 30.3813 27.529C28.7585 28.5591 27.4451 30.0654 26.5915 31.7999C25.5663 33.8816 25.2809 36.3061 25.7126 38.5845C25.9889 39.9996 26.5584 41.3562 27.3691 42.5417C27.9267 43.363 28.6102 44.0859 29.3133 44.7788C33.3443 48.8715 37.3718 52.9671 41.4063 57.0555C44.858 56.1237 48.0628 54.2795 50.6208 51.7516C53.7926 48.6619 55.9406 44.52 56.6895 40.1272C56.7063 40.053 56.7049 39.9197 56.8195 39.9418C58.9029 39.9447 60.9862 39.9411 63.0703 39.9454C64.4091 39.924 65.6627 38.8925 65.9362 37.5601C65.9517 37.4738 65.9362 37.3947 65.8891 37.3212C65.9749 36.9142 66.0354 36.4957 65.9862 36.0787L65.9693 36.1072C65.8252 34.6572 64.504 33.4609 63.0689 33.4574C57.3989 33.4524 51.7289 33.4567 46.0582 33.4524C45.6054 31.8783 44.7574 30.4347 43.6655 29.2299C41.8514 27.2695 39.2878 26.0212 36.6328 25.8922C35.9522 25.8936 35.2659 25.8537 34.5916 25.9649M54.727 53.6472C53.8383 53.794 53.0838 54.5447 52.92 55.4422C52.8159 56.0225 52.9102 56.6556 53.2526 57.1425C53.6576 57.7983 54.4338 58.1947 55.1939 58.1583C55.7789 58.1605 56.3386 57.8767 56.752 57.4697C57.0945 57.0705 57.3462 56.5664 57.3616 56.0296C57.4221 55.2191 57.0059 54.3829 56.3161 53.9651C55.8577 53.6472 55.2691 53.5552 54.727 53.6472V53.6472Z" fill="#4285F4"/>
<path d="M16.7548 14.8559C17.3763 14.821 18.0134 15.0555 18.4521 15.5068C18.9816 16.0272 19.2523 16.8271 19.0948 17.5635C18.9218 18.6171 17.9339 19.4584 16.8771 19.4291C15.859 19.4612 14.8964 18.6785 14.6791 17.6747C14.4316 16.7394 14.8823 15.6907 15.6888 15.1896C16.0102 14.9928 16.38 14.8759 16.7548 14.8559V14.8559Z" fill="#EA4335"/>
<path d="M34.5916 25.9649C35.2659 25.8537 35.9522 25.8936 36.6328 25.8922C39.2878 26.0212 41.8514 27.2695 43.6655 29.2299C44.7574 30.4347 45.6054 31.8783 46.0582 33.4524C42.7064 33.4517 39.3539 33.4517 36.0014 33.4517C35.1443 33.4438 34.2977 33.8381 33.7366 34.4932C33.3141 34.9815 33.0518 35.6089 33.0026 36.2569C32.9189 37.2671 33.3795 38.3029 34.1761 38.9146C34.7119 39.3359 35.3911 39.5562 36.0689 39.5419C44.9768 39.539 53.8854 39.5376 62.7933 39.544C63.128 39.5469 63.4676 39.5333 63.7917 39.4385C64.7909 39.1662 65.6213 38.3357 65.8891 37.3212C65.9363 37.3947 65.9517 37.4738 65.9363 37.5601C65.6627 38.8925 64.4091 39.924 63.0703 39.9454C60.9863 39.9411 58.9029 39.9447 56.8195 39.9418C56.7049 39.9197 56.7063 40.053 56.6895 40.1272C55.9406 44.52 53.7926 48.6619 50.6208 51.7516C48.0628 54.2795 44.858 56.1237 41.4063 57.0555C37.3718 52.9671 33.3443 48.8715 29.3133 44.7788C28.6102 44.0859 27.9267 43.363 27.3691 42.5417C26.5584 41.3562 25.9889 39.9996 25.7126 38.5845C25.2809 36.3061 25.5663 33.8815 26.5915 31.7999C27.4451 30.0654 28.7585 28.5591 30.3813 27.529C31.6463 26.6978 33.0989 26.1681 34.5916 25.9649V25.9649Z" fill="#FFFFFE"/>
<path d="M33.7366 34.4932C34.2977 33.8381 35.1443 33.4438 36.0014 33.4517C39.3539 33.4517 42.7064 33.4517 46.0582 33.4524C51.7289 33.4567 57.3989 33.4524 63.0689 33.4574C64.504 33.461 65.8251 34.6572 65.9693 36.1072C65.9559 36.1307 65.9285 36.1764 65.9144 36.1992C65.6557 34.8796 64.3978 33.8352 63.0689 33.8431C54.2819 33.8502 45.495 33.8516 36.708 33.8552C36.1645 33.8644 35.6013 33.7981 35.0803 33.9949C34.4433 34.1974 33.904 34.6436 33.5144 35.1854C33.2796 35.5098 33.2058 35.9154 33.0026 36.2569C33.0518 35.6089 33.3141 34.9815 33.7366 34.4932V34.4932Z" fill="#BFBFBF"/>
<path d="M16.4749 53.6407C17.4417 53.4504 18.4957 53.9886 18.9049 54.8997C19.2171 55.547 19.2016 56.3447 18.855 56.9742C18.4936 57.6821 17.7328 58.1541 16.9481 58.1719C16.3666 58.199 15.7866 57.9694 15.3541 57.5788C14.7192 56.9942 14.4562 56.0296 14.7284 55.2005C14.9646 54.405 15.667 53.7798 16.4749 53.6407V53.6407Z" fill="#EA4335"/>
<path d="M35.0803 33.9949C35.6013 33.7981 36.1645 33.8644 36.708 33.8552C45.495 33.8516 54.2819 33.8502 63.0689 33.8431C64.3978 33.8352 65.6557 34.8796 65.9144 36.1992C65.9285 36.1764 65.9559 36.1307 65.9693 36.1072L65.9862 36.0787C66.0354 36.4957 65.9749 36.9142 65.8891 37.3213C65.6212 38.3357 64.7909 39.1662 63.7917 39.4385C63.4676 39.5334 63.128 39.5469 62.7933 39.544C53.8854 39.5376 44.9768 39.5391 36.0689 39.5419C35.3911 39.5562 34.7119 39.3359 34.1761 38.9146C33.3794 38.3029 32.9189 37.2671 33.0026 36.2569C33.2058 35.9154 33.2796 35.5098 33.5144 35.1854C33.904 34.6436 34.4433 34.1974 35.0803 33.9949V33.9949Z" fill="#34A853"/>
<path d="M4.18289 45.3456C4.2525 45.4539 4.32984 45.5623 4.36008 45.6913C4.61461 46.6687 4.98727 47.6076 5.33602 48.5536C5.60883 49.2173 5.88305 49.881 6.19734 50.5261C6.42656 51.1021 6.75281 51.6297 7.03406 52.18C8.29688 54.5155 9.82969 56.7055 11.6163 58.6581C12.6717 59.8942 13.8846 60.9778 15.1123 62.0336C16.6662 63.2968 18.3087 64.4532 20.0573 65.4227C24.2508 67.7824 28.9631 69.1775 33.7479 69.499C39.465 69.9082 45.2784 68.749 50.4331 66.2111C50.5048 66.2867 50.5765 66.3623 50.6475 66.4407L50.6496 66.4842C47.674 67.9834 44.4705 69.0171 41.1884 69.5432C37.1869 70.1777 33.0701 70.0772 29.1073 69.2224C24.3338 68.1994 19.7965 66.0707 15.9293 63.0552C11.463 59.5884 7.89117 54.9475 5.67352 49.7049C5.08149 48.2884 4.55344 46.8376 4.18289 45.3456V45.3456Z" fill="#939393"/>
<path d="M54.727 53.6472C55.2691 53.5552 55.8577 53.6472 56.3161 53.9651C57.0059 54.3829 57.4221 55.2191 57.3616 56.0296C57.3462 56.5665 57.0945 57.0705 56.752 57.4697C56.3386 57.8767 55.7789 58.1605 55.1939 58.1583C54.4338 58.1947 53.6576 57.7983 53.2526 57.1425C52.9102 56.6556 52.8159 56.0225 52.92 55.4422C53.0838 54.5447 53.8383 53.794 54.727 53.6472V53.6472Z" fill="#EA4335"/>
<path d="M35.6041 61.6273C36.218 61.516 36.874 61.6743 37.3676 62.0628C38.1368 62.6431 38.4609 63.7538 38.1115 64.662C37.8745 65.335 37.3057 65.8675 36.63 66.065C35.9726 66.2653 35.2301 66.1313 34.6774 65.7185C33.9195 65.181 33.5679 64.1345 33.84 63.2384C34.0629 62.4164 34.7773 61.7713 35.6041 61.6273Z" fill="#EA4335"/>
</svg>
